<?xml version="1.0" encoding="UTF-8" standalone="no"?>
<!DOCTYPE svg PUBLIC "-//W3C//DTD SVG 1.1//EN" "http://www.w3.org/Graphics/SVG/1.1/DTD/svg11.dtd">
<!-- Created with Vectornator (http://vectornator.io/) -->
<svg height="100%" stroke-miterlimit="10" style="fill-rule:nonzero;clip-rule:evenodd;stroke-linecap:round;stroke-linejoin:round;" version="1.1" viewBox="0 0 193 26" width="100%" xml:space="preserve" xmlns="http://www.w3.org/2000/svg" xmlns:vectornator="http://vectornator.io" xmlns:xlink="http://www.w3.org/1999/xlink">
<defs/>
<g id="图层-1" vectornator:layerName="图层 1">
<g fill="#1e80ff" opacity="1" stroke="none">
<path d="M33.7113 2.17916L32.542 4.60378L45.1451 12.3945L45.1451 14.6222L35.7543 20.493L34.5359 18.7822L43.1143 13.5269L31.619 6.49916L22.659 24.9853L20.7636 24.1361L21.7974 22.0192L9.92049 14.6222L9.92049 12.4069L19.4097 6.53609L20.5297 8.29609L11.9513 13.5269L22.7082 20.1115L31.8405 1.2807L33.7113 2.17916Z"/>
<path d="M73.2559 3.96378C74.339 3.96378 75.2641 4.10121 76.0313 4.37609C76.7984 4.65096 77.539 5.07557 78.2528 5.64993L76.9359 7.2007C75.9348 6.36378 74.7574 5.94532 73.4036 5.94532C72.4518 5.94532 71.6046 6.17096 70.862 6.62224C70.1195 7.07352 69.5266 7.80583 69.0836 8.81916C68.6405 9.8325 68.419 11.1392 68.419 12.7392C68.419 14.3145 68.6323 15.6048 69.059 16.6099C69.4856 17.6151 70.0682 18.3474 70.8066 18.8069C71.5451 19.2663 72.4025 19.4961 73.379 19.4961C74.2241 19.4961 74.9502 19.3689 75.5574 19.1145C76.1646 18.8602 76.739 18.5074 77.2805 18.0561L78.499 19.6192C77.9082 20.2017 77.1841 20.6674 76.3266 21.0161C75.4692 21.3648 74.4661 21.5392 73.3174 21.5392C71.8979 21.5392 70.6261 21.1986 69.502 20.5176C68.3779 19.8366 67.4938 18.8335 66.8497 17.5084C66.2056 16.1833 65.8836 14.5935 65.8836 12.7392C65.8836 10.893 66.2118 9.30942 66.8682 7.98839C67.5246 6.66737 68.4128 5.66634 69.5328 4.98532C70.6528 4.30429 71.8938 3.96378 73.2559 3.96378Z"/>
<path d="M86.622 7.95147C87.8446 7.95147 88.8805 8.22839 89.7297 8.78224C90.579 9.33609 91.219 10.1197 91.6497 11.133C92.0805 12.1463 92.2959 13.3463 92.2959 14.733C92.2959 16.0869 92.0764 17.2745 91.6374 18.2961C91.1984 19.3176 90.5502 20.1135 89.6928 20.6838C88.8354 21.254 87.8036 21.5392 86.5974 21.5392C85.3748 21.5392 84.3369 21.2622 83.4836 20.7084C82.6302 20.1545 81.9861 19.3689 81.5513 18.3515C81.1164 17.334 80.899 16.1361 80.899 14.7576C80.899 13.4038 81.1205 12.2161 81.5636 11.1945C82.0066 10.173 82.6569 9.37711 83.5143 8.80685C84.3718 8.2366 85.4077 7.95147 86.622 7.95147ZM86.622 9.83455C85.5472 9.83455 84.741 10.2366 84.2036 11.0407C83.6661 11.8448 83.3974 13.0838 83.3974 14.7576C83.3974 16.4151 83.662 17.6458 84.1913 18.4499C84.7205 19.254 85.5225 19.6561 86.5974 19.6561C87.6723 19.6561 88.4743 19.252 89.0036 18.4438C89.5328 17.6356 89.7974 16.3986 89.7974 14.733C89.7974 13.0756 89.5328 11.8448 89.0036 11.0407C88.4743 10.2366 87.6805 9.83455 86.622 9.83455Z"/>
<path d="M105.896 18.253C105.896 18.7535 105.976 19.1248 106.136 19.3669C106.296 19.6089 106.556 19.7874 106.917 19.9022L106.364 21.5269C105.075 21.3628 104.238 20.7597 103.853 19.7176C103.393 20.3084 102.809 20.7597 102.099 21.0715C101.389 21.3833 100.608 21.5392 99.7543 21.5392C98.8928 21.5392 98.1441 21.373 97.5082 21.0407C96.8723 20.7084 96.3841 20.2386 96.0436 19.6315C95.7031 19.0243 95.5328 18.3186 95.5328 17.5145C95.5328 16.1689 96.06 15.133 97.1143 14.4069C98.1687 13.6807 99.6846 13.3176 101.662 13.3176L103.545 13.3176L103.545 12.333C103.545 11.4715 103.289 10.8438 102.776 10.4499C102.263 10.0561 101.518 9.85916 100.542 9.85916C100.083 9.85916 99.5574 9.91455 98.9666 10.0253C98.3759 10.1361 97.7646 10.3022 97.1328 10.5238L96.5297 8.8007C98.0313 8.23455 99.4877 7.95147 100.899 7.95147C102.54 7.95147 103.783 8.3248 104.628 9.07147C105.473 9.81814 105.896 10.8643 105.896 12.2099L105.896 18.253ZM100.419 19.7669C101.026 19.7669 101.609 19.611 102.167 19.2992C102.725 18.9874 103.184 18.5525 103.545 17.9945L103.545 14.8561L101.822 14.8561C100.501 14.8561 99.541 15.0797 98.942 15.5269C98.3431 15.974 98.0436 16.6161 98.0436 17.453C98.0436 18.2161 98.2425 18.7925 98.6405 19.1822C99.0384 19.572 99.6313 19.7669 100.419 19.7669Z"/>
<path d="M115.644 19.6561C116.587 19.6561 117.332 19.4838 117.877 19.1392C118.423 18.7945 118.696 18.3269 118.696 17.7361C118.696 17.334 118.62 17.0017 118.468 16.7392C118.316 16.4766 118.019 16.2366 117.576 16.0192C117.133 15.8017 116.464 15.5781 115.57 15.3484C114.602 15.1022 113.806 14.8315 113.182 14.5361C112.558 14.2407 112.074 13.8551 111.73 13.3792C111.385 12.9033 111.213 12.3002 111.213 11.5699C111.213 10.8397 111.42 10.2017 111.834 9.65609C112.249 9.11044 112.835 8.68993 113.594 8.39455C114.353 8.09916 115.237 7.95147 116.247 7.95147C118.134 7.95147 119.734 8.43968 121.047 9.41609L120.037 10.9545C119.488 10.5853 118.913 10.3022 118.314 10.1053C117.715 9.90839 117.043 9.80993 116.296 9.80993C115.377 9.80993 114.704 9.94942 114.277 10.2284C113.851 10.5074 113.637 10.8971 113.637 11.3976C113.637 11.7586 113.738 12.054 113.939 12.2838C114.14 12.5135 114.474 12.7228 114.942 12.9115C115.41 13.1002 116.103 13.3217 117.022 13.5761C117.957 13.8304 118.725 14.1135 119.324 14.4253C119.923 14.7371 120.39 15.1474 120.727 15.6561C121.063 16.1648 121.231 16.813 121.231 17.6007C121.231 18.4869 120.973 19.2253 120.456 19.8161C119.939 20.4069 119.258 20.8417 118.413 21.1207C117.568 21.3997 116.645 21.5392 115.644 21.5392C114.536 21.5392 113.551 21.3771 112.69 21.053C111.828 20.7289 111.086 20.2961 110.462 19.7545L111.767 18.253C112.292 18.6879 112.885 19.0304 113.545 19.2807C114.206 19.531 114.905 19.6561 115.644 19.6561Z"/>
<path d="M136.407 20.5669C135.947 20.8622 135.393 21.0981 134.745 21.2745C134.097 21.451 133.449 21.5392 132.8 21.5392C131.857 21.5392 131.049 21.3689 130.376 21.0284C129.703 20.6879 129.194 20.212 128.85 19.6007C128.505 18.9894 128.333 18.2776 128.333 17.4653L128.333 10.0315L125.391 10.0315L125.391 8.25916L128.333 8.25916L128.333 5.32993L130.696 5.04685L130.696 8.25916L135.127 8.25916L134.856 10.0315L130.696 10.0315L130.696 17.4407C130.696 18.171 130.883 18.7125 131.256 19.0653C131.629 19.4181 132.234 19.5945 133.071 19.5945C133.941 19.5945 134.757 19.3894 135.52 18.9792L136.407 20.5669Z"/>
<path d="M149.367 7.95147C150.138 7.95147 150.755 8.21814 151.219 8.75147C151.683 9.2848 151.914 10.2284 151.914 11.5822L151.914 21.2315L149.76 21.2315L149.76 11.9269C149.76 11.3607 149.742 10.9361 149.705 10.653C149.668 10.3699 149.582 10.1566 149.447 10.013C149.311 9.86942 149.104 9.79762 148.825 9.79762C148.046 9.79762 147.34 10.2776 146.708 11.2376L146.708 21.2315L144.64 21.2315L144.64 11.9269C144.64 11.3607 144.622 10.9361 144.585 10.653C144.548 10.3699 144.462 10.1566 144.327 10.013C144.191 9.86942 143.984 9.79762 143.705 9.79762C142.926 9.79762 142.22 10.2776 141.588 11.2376L141.588 21.2315L139.434 21.2315L139.434 8.25916L141.256 8.25916L141.404 9.71147C141.814 9.14532 142.236 8.71044 142.671 8.40685C143.106 8.10326 143.619 7.95147 144.21 7.95147C145.399 7.95147 146.167 8.51352 146.511 9.63762C146.905 9.09609 147.326 8.67968 147.773 8.38839C148.22 8.09711 148.751 7.95147 149.367 7.95147Z"/>
<path d="M164.973 18.253C164.973 18.7535 165.053 19.1248 165.213 19.3669C165.373 19.6089 165.633 19.7874 165.994 19.9022L165.44 21.5269C164.152 21.3628 163.315 20.7597 162.93 19.7176C162.47 20.3084 161.886 20.7597 161.176 21.0715C160.466 21.3833 159.685 21.5392 158.831 21.5392C157.97 21.5392 157.221 21.373 156.585 21.0407C155.949 20.7084 155.461 20.2386 155.12 19.6315C154.78 19.0243 154.61 18.3186 154.61 17.5145C154.61 16.1689 155.137 15.133 156.191 14.4069C157.246 13.6807 158.762 13.3176 160.739 13.3176L162.622 13.3176L162.622 12.333C162.622 11.4715 162.366 10.8438 161.853 10.4499C161.34 10.0561 160.595 9.85916 159.619 9.85916C159.159 9.85916 158.634 9.91455 158.044 10.0253C157.453 10.1361 156.842 10.3022 156.21 10.5238L155.607 8.8007C157.108 8.23455 158.565 7.95147 159.976 7.95147C161.617 7.95147 162.86 8.3248 163.705 9.07147C164.55 9.81814 164.973 10.8643 164.973 12.2099L164.973 18.253ZM159.496 19.7669C160.103 19.7669 160.686 19.611 161.244 19.2992C161.802 18.9874 162.261 18.5525 162.622 17.9945L162.622 14.8561L160.899 14.8561C159.578 14.8561 158.618 15.0797 158.019 15.5269C157.42 15.974 157.12 16.6161 157.12 17.453C157.12 18.2161 157.319 18.7925 157.717 19.1822C158.115 19.572 158.708 19.7669 159.496 19.7669Z"/>
<path d="M170.179 21.2315L170.179 8.25916L172.21 8.25916L172.382 10.0069C172.907 9.35865 173.551 8.85403 174.314 8.49301C175.077 8.13198 175.849 7.95147 176.628 7.95147C177.851 7.95147 178.764 8.28378 179.367 8.94839C179.97 9.61301 180.271 10.5607 180.271 11.7915L180.271 21.2315L177.908 21.2315L177.908 13.2438C177.908 12.3494 177.859 11.6643 177.76 11.1884C177.662 10.7125 177.465 10.3597 177.17 10.1299C176.874 9.90019 176.431 9.78532 175.84 9.78532C175.192 9.78532 174.579 9.98429 174 10.3822C173.422 10.7802 172.936 11.2663 172.542 11.8407L172.542 21.2315L170.179 21.2315Z"/>
</g>
</g>
</svg>
